<?xml version="1.0" encoding="utf-8"?>
<!-- Generator: Adobe Illustrator 23.0.6, SVG Export Plug-In . SVG Version: 6.00 Build 0)  -->
<svg version="1.1" id="Layer_1" xmlns="http://www.w3.org/2000/svg" xmlns:xlink="http://www.w3.org/1999/xlink" x="0px" y="0px"
	 viewBox="0 0 177.86 100" style="enable-background:new 0 0 177.86 100;" xml:space="preserve">
<g>
	<path d="M28.13,77.15c0.48,0.51,0.85,1.12,1.11,1.82c0.25,0.71,0.38,1.47,0.38,2.3c0,0.82-0.13,1.59-0.38,2.32
		c-0.25,0.73-0.62,1.35-1.1,1.86C27.62,86,27,86.43,26.29,86.72c-0.71,0.29-1.53,0.44-2.45,0.44c-0.8,0-1.53-0.13-2.2-0.39
		c-0.67-0.26-1.26-0.64-1.78-1.16c-0.5-0.49-0.89-1.1-1.18-1.83c-0.29-0.73-0.43-1.54-0.43-2.44c0-0.88,0.13-1.67,0.38-2.36
		c0.25-0.69,0.63-1.3,1.13-1.84c0.48-0.52,1.08-0.92,1.79-1.2c0.71-0.28,1.5-0.43,2.38-0.43c0.91,0,1.72,0.14,2.41,0.43
		C27.03,76.24,27.63,76.63,28.13,77.15z M25.62,84.81c0.14-0.41,0.25-0.91,0.32-1.5c0.07-0.59,0.1-1.27,0.1-2.06
		c0-0.52-0.03-1.11-0.1-1.77c-0.07-0.66-0.16-1.19-0.29-1.57c-0.16-0.46-0.37-0.83-0.65-1.09c-0.28-0.27-0.63-0.4-1.05-0.4
		c-0.46,0-0.83,0.14-1.11,0.43c-0.28,0.29-0.49,0.66-0.64,1.12c-0.14,0.42-0.23,0.91-0.28,1.48c-0.05,0.56-0.08,1.15-0.08,1.76
		c0,0.8,0.02,1.47,0.07,1.99c0.05,0.53,0.16,1.06,0.33,1.59c0.15,0.46,0.37,0.82,0.65,1.08s0.64,0.4,1.07,0.4
		c0.39,0,0.73-0.12,1.01-0.37C25.23,85.65,25.46,85.29,25.62,84.81z"/>
	<path d="M40.14,71.58c0,0.18-0.03,0.39-0.08,0.61c-0.05,0.22-0.14,0.41-0.25,0.56c-0.14,0.18-0.29,0.32-0.46,0.42
		c-0.17,0.1-0.42,0.14-0.76,0.14c-0.52,0-0.92-0.2-1.21-0.61s-0.61-1.08-0.94-2.02c-0.26,0.13-0.47,0.45-0.64,0.97
		s-0.24,1.64-0.24,3.36v0.87h2.7v1.21h-2.68v7.6c0,0.29,0.06,0.51,0.18,0.67s0.27,0.27,0.46,0.35c0.16,0.06,0.36,0.12,0.62,0.17
		c0.25,0.06,0.48,0.09,0.69,0.12v0.81h-6.62V86c0.17-0.01,0.34-0.03,0.5-0.06c0.16-0.02,0.3-0.06,0.43-0.11
		c0.21-0.09,0.35-0.21,0.43-0.38c0.08-0.17,0.11-0.38,0.11-0.66v-7.7h-1.99v-1.21h1.99c0-0.79,0.1-1.55,0.3-2.29
		c0.2-0.74,0.52-1.4,0.94-1.98c0.41-0.57,0.95-1.04,1.63-1.39c0.67-0.35,1.46-0.53,2.37-0.53c0.81,0,1.44,0.17,1.88,0.52
		C39.92,70.57,40.14,71.02,40.14,71.58z"/>
	<path d="M63.06,86.81h-7.53v-0.86c0.22-0.02,0.49-0.06,0.82-0.11s0.54-0.11,0.66-0.17c0.24-0.11,0.41-0.26,0.52-0.45
		c0.1-0.19,0.16-0.43,0.16-0.73V72.77l-4.78,13.78h-1.23c-0.06-0.24-0.2-0.73-0.44-1.45c-0.23-0.72-0.42-1.3-0.56-1.73L47.16,72.6
		v9.54c0,0.91,0.05,1.61,0.16,2.08c0.11,0.48,0.28,0.82,0.52,1.04c0.16,0.15,0.46,0.3,0.88,0.44c0.42,0.14,0.72,0.22,0.89,0.24v0.86
		h-5.97v-0.86c0.16-0.02,0.43-0.07,0.8-0.15c0.37-0.08,0.67-0.21,0.91-0.4c0.26-0.21,0.44-0.55,0.53-1.04
		c0.09-0.49,0.14-1.19,0.14-2.09v-7.77c0-0.47-0.05-0.86-0.16-1.18s-0.26-0.56-0.47-0.75c-0.26-0.23-0.53-0.38-0.8-0.44
		c-0.27-0.07-0.55-0.11-0.83-0.13v-0.86h6.4l3.43,10.33l2.89-8.38c0.1-0.31,0.19-0.68,0.28-1.11s0.14-0.71,0.15-0.84h6.16v0.86
		c-0.21,0.01-0.43,0.04-0.66,0.09s-0.45,0.1-0.66,0.18c-0.25,0.1-0.42,0.25-0.5,0.45c-0.08,0.21-0.12,0.43-0.12,0.69V84.5
		c0,0.26,0.04,0.49,0.12,0.67c0.08,0.18,0.25,0.34,0.5,0.47c0.13,0.07,0.34,0.13,0.64,0.19c0.3,0.06,0.53,0.1,0.69,0.12V86.81z"/>
	<path d="M70.58,86.81h-6.19V86c0.17-0.01,0.34-0.03,0.5-0.06c0.16-0.02,0.3-0.06,0.42-0.11c0.21-0.09,0.36-0.22,0.44-0.38
		c0.08-0.17,0.13-0.38,0.13-0.66v-6.43c0-0.26-0.05-0.48-0.16-0.68c-0.1-0.2-0.24-0.35-0.39-0.47c-0.12-0.09-0.3-0.17-0.53-0.25
		s-0.46-0.13-0.65-0.15V76l4.8-0.29l0.15,0.17v8.77c0,0.26,0.05,0.48,0.15,0.66c0.1,0.18,0.24,0.31,0.42,0.4
		c0.13,0.07,0.27,0.13,0.43,0.18s0.32,0.09,0.49,0.11V86.81z M69.15,71.74c0,0.56-0.19,1.04-0.57,1.43
		c-0.38,0.39-0.83,0.59-1.36,0.59c-0.53,0-0.98-0.2-1.37-0.59c-0.38-0.39-0.57-0.87-0.57-1.43c0-0.56,0.19-1.04,0.57-1.44
		c0.38-0.4,0.84-0.6,1.37-0.6c0.53,0,0.98,0.2,1.36,0.6C68.96,70.7,69.15,71.18,69.15,71.74z"/>
	<path d="M77.68,86.81h-6.17V86c0.17-0.01,0.34-0.03,0.5-0.06c0.16-0.02,0.3-0.06,0.43-0.11c0.21-0.09,0.35-0.22,0.43-0.38
		c0.08-0.17,0.11-0.38,0.11-0.66V72.55c0-0.28-0.05-0.54-0.15-0.78s-0.24-0.42-0.41-0.55c-0.13-0.1-0.33-0.19-0.59-0.28
		c-0.26-0.09-0.5-0.14-0.7-0.16v-0.81l4.94-0.29l0.15,0.18v14.78c0,0.27,0.04,0.49,0.13,0.66c0.09,0.17,0.22,0.3,0.41,0.4
		c0.13,0.07,0.27,0.13,0.41,0.18c0.15,0.05,0.32,0.09,0.51,0.11V86.81z"/>
	<path d="M94.69,76.65c-0.3,0.05-0.58,0.16-0.83,0.34c-0.25,0.17-0.47,0.5-0.65,0.97c-0.46,1.26-0.82,2.28-1.1,3.05
		c-0.27,0.77-0.66,1.89-1.16,3.35c-0.1,0.3-0.23,0.72-0.38,1.25c-0.15,0.53-0.26,0.97-0.35,1.3h-1.91l-2.47-7.52l-2.31,7.52h-1.89
		c-0.66-2.01-1.18-3.57-1.56-4.68c-0.38-1.11-0.88-2.57-1.52-4.39c-0.12-0.35-0.32-0.62-0.6-0.82c-0.28-0.2-0.58-0.32-0.88-0.37
		v-0.81h6.01v0.81c-0.22,0.02-0.49,0.08-0.79,0.18c-0.31,0.1-0.46,0.22-0.46,0.39c0,0.07,0.01,0.14,0.02,0.19
		c0.02,0.06,0.04,0.16,0.08,0.3c0.18,0.58,0.42,1.32,0.73,2.23c0.31,0.91,0.67,1.97,1.08,3.18l2.18-7.28h1.94l2.47,7.51
		c0.38-1.13,0.67-2.02,0.88-2.68c0.21-0.65,0.46-1.49,0.78-2.52c0.04-0.15,0.07-0.29,0.08-0.41c0.01-0.12,0.01-0.2,0.01-0.24
		c0-0.13-0.06-0.25-0.18-0.36c-0.12-0.11-0.26-0.19-0.42-0.26s-0.32-0.12-0.47-0.16c-0.15-0.04-0.28-0.06-0.39-0.08v-0.81h4.04
		V76.65z"/>
	<path d="M103.87,86.58c-0.29,0.14-0.63,0.27-1.02,0.39c-0.39,0.12-0.81,0.18-1.24,0.18c-0.8,0-1.39-0.13-1.77-0.4
		c-0.38-0.27-0.64-0.65-0.77-1.15h-0.06c-0.22,0.25-0.44,0.46-0.64,0.64s-0.43,0.33-0.66,0.45c-0.31,0.16-0.6,0.28-0.89,0.37
		c-0.29,0.08-0.68,0.12-1.19,0.12c-0.76,0-1.41-0.25-1.94-0.76c-0.54-0.51-0.8-1.17-0.8-2.01c0-0.48,0.06-0.89,0.18-1.22
		c0.12-0.34,0.28-0.63,0.5-0.89c0.2-0.24,0.42-0.43,0.68-0.59c0.26-0.15,0.54-0.3,0.85-0.43c0.59-0.24,1.29-0.5,2.12-0.76
		s1.43-0.5,1.81-0.7v-1.06c0-0.18-0.01-0.43-0.04-0.73s-0.08-0.56-0.17-0.76c-0.09-0.24-0.23-0.43-0.43-0.6
		c-0.2-0.16-0.45-0.24-0.77-0.24c-0.29,0-0.53,0.05-0.72,0.14c-0.19,0.09-0.35,0.19-0.46,0.28c0.02,0.15,0.08,0.37,0.17,0.67
		c0.09,0.3,0.14,0.59,0.14,0.87c0,0.13-0.03,0.28-0.09,0.47c-0.06,0.19-0.14,0.34-0.26,0.45c-0.15,0.15-0.32,0.26-0.51,0.34
		c-0.19,0.08-0.47,0.12-0.86,0.12c-0.55,0-0.97-0.15-1.25-0.45c-0.28-0.3-0.42-0.69-0.42-1.17c0-0.41,0.14-0.78,0.44-1.11
		c0.29-0.33,0.64-0.6,1.06-0.81c0.41-0.22,0.88-0.39,1.42-0.51c0.54-0.12,1.03-0.18,1.49-0.18c0.63,0,1.21,0.04,1.74,0.13
		c0.53,0.08,1.01,0.26,1.43,0.53c0.4,0.26,0.73,0.63,0.96,1.12c0.24,0.49,0.36,1.13,0.36,1.92c0,0.83-0.01,1.82-0.04,2.96
		c-0.03,1.14-0.04,1.89-0.04,2.25c0,0.33,0.04,0.59,0.13,0.78c0.09,0.19,0.22,0.34,0.41,0.43c0.11,0.06,0.29,0.09,0.52,0.1
		c0.24,0.01,0.46,0.02,0.65,0.02V86.58z M99.01,80.82c-0.37,0.14-0.73,0.3-1.09,0.48c-0.36,0.18-0.66,0.37-0.88,0.57
		c-0.24,0.21-0.43,0.47-0.57,0.79s-0.21,0.7-0.21,1.14c0,0.58,0.12,0.99,0.35,1.25c0.23,0.26,0.52,0.39,0.86,0.39
		c0.36,0,0.66-0.08,0.89-0.25c0.23-0.17,0.44-0.37,0.61-0.62L99.01,80.82z"/>
	<path d="M116.23,86.58l-4.67,0.32l-0.15-0.16V85.3h-0.06c-0.22,0.23-0.44,0.45-0.65,0.67c-0.21,0.22-0.46,0.42-0.76,0.59
		c-0.33,0.2-0.65,0.35-0.94,0.44s-0.73,0.14-1.3,0.14c-0.98,0-1.74-0.33-2.26-1c-0.52-0.67-0.79-1.62-0.79-2.84v-4.97
		c0-0.29-0.05-0.52-0.15-0.7c-0.1-0.18-0.23-0.34-0.39-0.48c-0.13-0.11-0.3-0.19-0.51-0.24c-0.21-0.05-0.4-0.08-0.57-0.09V76
		l4.73-0.29l0.11,0.17v7.35c0,0.76,0.13,1.32,0.39,1.68c0.26,0.36,0.61,0.54,1.06,0.54c0.46,0,0.88-0.14,1.25-0.41
		c0.37-0.27,0.64-0.56,0.81-0.87v-5.96c0-0.25-0.04-0.48-0.13-0.67c-0.08-0.2-0.21-0.36-0.37-0.49c-0.12-0.09-0.29-0.15-0.5-0.18
		c-0.22-0.03-0.44-0.05-0.67-0.07V76l4.76-0.29l0.15,0.17v8.53c0,0.26,0.04,0.48,0.14,0.66s0.22,0.33,0.4,0.46
		c0.12,0.09,0.28,0.15,0.48,0.18s0.39,0.05,0.59,0.06V86.58z"/>
	<path d="M129.6,86.81h-4.62c-0.57-1.12-1.09-2.08-1.56-2.86s-0.91-1.51-1.33-2.18l-0.58,0.55v2.41c0,0.27,0.03,0.48,0.1,0.65
		c0.07,0.17,0.2,0.29,0.4,0.38c0.12,0.06,0.25,0.11,0.41,0.15c0.16,0.04,0.31,0.07,0.47,0.09v0.81h-6.08V86
		c0.16-0.01,0.33-0.04,0.49-0.06c0.16-0.03,0.31-0.06,0.43-0.11c0.21-0.08,0.35-0.21,0.43-0.38c0.08-0.17,0.11-0.39,0.11-0.66V72.48
		c0-0.24-0.05-0.5-0.14-0.76c-0.09-0.26-0.23-0.46-0.42-0.59c-0.12-0.09-0.31-0.16-0.56-0.22c-0.25-0.06-0.47-0.1-0.68-0.11v-0.81
		l4.88-0.29l0.15,0.18v11.4c0.48-0.49,1.03-1.05,1.63-1.69s1.09-1.17,1.45-1.59c0.21-0.25,0.33-0.44,0.36-0.57
		c0.02-0.13,0.03-0.21,0.03-0.24c0-0.13-0.1-0.24-0.31-0.33c-0.21-0.09-0.52-0.17-0.93-0.23v-0.78h4.98v0.76
		c-0.65,0.21-1.15,0.4-1.49,0.58s-0.72,0.42-1.12,0.72c-0.27,0.2-0.53,0.41-0.78,0.63s-0.54,0.49-0.86,0.81
		c0.64,1.05,1.23,2.01,1.77,2.91c0.54,0.89,1.11,1.83,1.7,2.83c0.2,0.35,0.45,0.58,0.75,0.7c0.3,0.12,0.6,0.19,0.9,0.22V86.81z"/>
	<path d="M140.24,84.17c-0.23,0.42-0.5,0.82-0.83,1.19s-0.69,0.69-1.1,0.96c-0.44,0.28-0.88,0.49-1.33,0.63
		c-0.45,0.14-0.96,0.22-1.54,0.22c-0.97,0-1.8-0.15-2.5-0.46c-0.7-0.31-1.28-0.73-1.74-1.25s-0.8-1.14-1.02-1.85
		s-0.34-1.48-0.34-2.32c0-0.75,0.12-1.47,0.37-2.16c0.25-0.69,0.59-1.3,1.04-1.84c0.44-0.52,1-0.95,1.68-1.27
		c0.68-0.32,1.43-0.49,2.27-0.49c0.91,0,1.67,0.13,2.25,0.38c0.59,0.25,1.07,0.6,1.46,1.04c0.37,0.42,0.64,0.92,0.81,1.49
		c0.17,0.57,0.25,1.17,0.25,1.8v0.72h-6.62c0,1.51,0.26,2.66,0.77,3.45c0.52,0.79,1.33,1.18,2.46,1.18c0.61,0,1.17-0.19,1.66-0.57
		c0.49-0.38,0.91-0.86,1.25-1.44L140.24,84.17z M136.49,79.97c0-0.44-0.02-0.9-0.06-1.36s-0.11-0.84-0.21-1.14
		c-0.11-0.35-0.26-0.61-0.46-0.79s-0.44-0.27-0.73-0.27c-0.5,0-0.9,0.29-1.21,0.86c-0.3,0.58-0.46,1.48-0.49,2.73L136.49,79.97z"/>
	<path d="M151.7,84.17c-0.23,0.42-0.5,0.82-0.83,1.19s-0.69,0.69-1.1,0.96c-0.44,0.28-0.88,0.49-1.33,0.63
		c-0.45,0.14-0.96,0.22-1.54,0.22c-0.97,0-1.8-0.15-2.5-0.46c-0.7-0.31-1.28-0.73-1.74-1.25s-0.8-1.14-1.02-1.85
		s-0.34-1.48-0.34-2.32c0-0.75,0.12-1.47,0.37-2.16c0.25-0.69,0.59-1.3,1.04-1.84c0.44-0.52,1-0.95,1.68-1.27
		c0.68-0.32,1.43-0.49,2.27-0.49c0.91,0,1.67,0.13,2.25,0.38c0.59,0.25,1.07,0.6,1.46,1.04c0.37,0.42,0.64,0.92,0.81,1.49
		c0.17,0.57,0.25,1.17,0.25,1.8v0.72h-6.62c0,1.51,0.26,2.66,0.77,3.45c0.52,0.79,1.33,1.18,2.46,1.18c0.61,0,1.17-0.19,1.66-0.57
		c0.49-0.38,0.91-0.86,1.25-1.44L151.7,84.17z M147.96,79.97c0-0.44-0.02-0.9-0.06-1.36s-0.11-0.84-0.21-1.14
		c-0.11-0.35-0.26-0.61-0.46-0.79s-0.44-0.27-0.73-0.27c-0.5,0-0.9,0.29-1.21,0.86c-0.3,0.58-0.46,1.48-0.49,2.73L147.96,79.97z"/>
</g>
<g>
	<path d="M47.05,32.2c-1.15,0.32-2.31,0.64-3.46,0.94c-1.72,0.35-3.89,0.52-6.52,0.52c-3.49,0-6.32-1.05-8.5-3.14
		c-2.55-2.42-3.83-5.94-3.83-10.56c0-3.74,1.55-6.72,4.64-8.95c2.63-1.9,5.61-2.84,8.95-2.84c2.16,0,3.82,0.19,4.97,0.56
		c0.98,0.32,1.96,0.92,2.94,1.8l-1.62,1.68c-0.96-0.6-1.79-1.01-2.5-1.24c-0.96-0.3-2.16-0.45-3.61-0.45c-1.3,0-2.6,0.19-3.9,0.56
		l0.4,19.88c0.79,0.22,1.58,0.34,2.39,0.34c2.18,0,4.1-0.14,5.74-0.41c0.22-0.02,1.36-0.26,3.42-0.71L47.05,32.2z M30.52,27.82
		l-0.26-14.19c-1.57,1.6-2.36,3.71-2.36,6.33C27.9,23.05,28.77,25.67,30.52,27.82z M32.39,29.65l-0.37-17.41
		c-0.39,0.22-0.74,0.46-1.03,0.71l0.26,15.72C31.74,29.13,32.12,29.46,32.39,29.65z M34.27,30.7l-0.4-19.35
		c-0.25,0.1-0.61,0.26-1.1,0.49l0.37,18.3C33.52,30.37,33.9,30.55,34.27,30.7z M40.31,19.44c0.29,0.37,0.44,0.8,0.44,1.27
		c0,0.65-0.26,1.19-0.77,1.61c-0.37,0.3-0.8,0.45-1.29,0.45c-0.66,0-1.2-0.26-1.62-0.79c-0.29-0.37-0.44-0.8-0.44-1.27
		c0-0.67,0.27-1.22,0.81-1.65c0.37-0.3,0.79-0.45,1.25-0.45C39.35,18.61,39.89,18.89,40.31,19.44z"/>
	<path d="M60.45,23.52l-1.73-0.45c0.27-0.67,0.4-1.3,0.4-1.89c0-1.21-0.53-1.82-1.58-1.82c-1.55,0-2.86,1.24-3.94,3.73l-0.07,4.17
		l-2.72-0.04l0.22-7.9l-2.5-0.37v-1.72l4.79,0.07l0.07,2.47c0.49-0.57,0.98-1.15,1.47-1.72c0.76-0.65,1.8-0.97,3.13-0.97
		c1.01,0,1.8,0.37,2.39,1.12c0.52,0.7,0.77,1.56,0.77,2.58C61.15,21.78,60.91,22.69,60.45,23.52z M55.96,28.68l-6.11-0.22v-0.75
		l6.11,0.22V28.68z M53.49,29.13l-0.04,4.64l-2.87,0.45l0.15-5.13L53.49,29.13z"/>
	<path d="M77.49,32.97c-0.76,0.2-1.53,0.42-2.32,0.65c-1.13,0.23-2.58,0.34-4.34,0.34c-2.31,0-4.2-0.7-5.67-2.1
		c-1.69-1.6-2.54-3.95-2.54-7.05c0-2.5,1.03-4.49,3.09-5.96c1.74-1.27,3.73-1.91,5.96-1.91c3.36,0,5.3,1.72,5.82,5.17l-12.37,0.3
		c-0.15,0.4-0.23,0.72-0.26,0.97l12.52-0.37l-0.07,0.9l-12.59,0.38v0.53c0,2.18,0.64,4.01,1.91,5.49c1.2,1.4,2.68,2.1,4.42,2.1
		c1.82,0,3.85-0.26,6.11-0.79L77.49,32.97z M75.61,20.75c-0.76-1.5-2.04-2.25-3.83-2.25c-2.85,0-4.9,0.96-6.15,2.88L75.61,20.75z"/>
	<path d="M95.02,31.71l-0.18,1.98c-0.59,0.55-1.19,0.82-1.8,0.82c-1.18,0-1.89-1.05-2.13-3.14c-0.49,0.7-1.34,1.33-2.54,1.91
		c-1.2,0.57-2.38,0.86-3.53,0.86c-3.29,0-4.93-1.57-4.93-4.72c0-1.17,0.44-2.4,1.33-3.67c1.25-1.8,3.02-2.69,5.3-2.69
		c1.77,0,3.2,0.42,4.31,1.27c-0.52-4.24-1.84-6.36-3.98-6.36c-1.03,0-2.06,0.47-3.09,1.42l-0.77-0.97c0.44-0.77,1.23-1.41,2.36-1.91
		c1.03-0.45,2-0.65,2.91-0.6c1.89,0.1,3.34,1.15,4.34,3.14c0.88,1.72,1.32,3.83,1.32,6.33c0,0.45-0.02,1.04-0.05,1.76
		c-0.04,0.72-0.05,1.29-0.05,1.68c0,2.1-0.01,2.81-0.04,2.13c0.02,0.9,0.17,1.35,0.44,1.35c0.07,0,0.2-0.08,0.37-0.24
		C94.74,31.91,94.89,31.79,95.02,31.71z M84.19,25.57c-1.62,0.9-2.43,2.05-2.43,3.44c0,1.52,0.74,2.47,2.21,2.84
		C84.07,29.77,84.14,27.67,84.19,25.57z M85.78,25.09H85.7c-0.22,0-0.47,0.05-0.74,0.15l-0.29,6.77c0.2,0,0.48,0.03,0.85,0.07
		C85.62,29.74,85.7,27.41,85.78,25.09z M87.21,25.16c-0.29-0.05-0.53-0.08-0.7-0.08l-0.29,7c0.17,0,0.4-0.02,0.7-0.08
		C86.94,31.99,87.04,29.7,87.21,25.16z M90.93,27.6C90,26.35,89,25.59,87.95,25.31l-0.26,6.51c1.25-0.47,2.29-1.15,3.13-2.02
		C90.82,29.83,90.86,29.09,90.93,27.6z"/>
	<path d="M105.32,17.23l-8.98,0.22V16.7l8.98-0.22V17.23z M105.32,18.5l-8.98,0.22v-0.75l8.98-0.22V18.5z M102.82,10.08
		c-0.05,0.85-0.15,2.78-0.29,5.8l-3.35,0.08l-0.11-4.3L102.82,10.08z M108.6,28.31c0,2.42-0.77,4.14-2.32,5.17
		c-0.93,0.6-2.01,0.9-3.24,0.9c-1.08,0-1.96-0.49-2.65-1.46c-0.64-0.9-0.96-1.96-0.96-3.18c0-2.74-0.05-6.21-0.15-10.41l3.17-0.07
		l-0.48,9.17c0,2.57,0.79,3.86,2.36,3.86c0.61,0,1.15-0.12,1.62-0.37c0.37-0.65,0.55-1.41,0.55-2.28c0-1-0.55-1.5-1.66-1.5
		l-0.96,1.01l-0.7-0.41c0.22-0.87,0.64-1.56,1.25-2.06c0.54-0.45,1.09-0.67,1.66-0.67c0.71,0,1.31,0.22,1.79,0.66
		C108.36,27.08,108.6,27.63,108.6,28.31z"/>
	<path d="M116.92,11.76c0,0.9-0.31,1.67-0.94,2.3c-0.63,0.64-1.38,0.95-2.26,0.95c-0.88,0-1.64-0.32-2.26-0.95
		c-0.63-0.64-0.94-1.4-0.94-2.3s0.31-1.67,0.94-2.3c0.63-0.64,1.38-0.95,2.26-0.95c0.88,0,1.64,0.32,2.26,0.95
		C116.61,10.1,116.92,10.86,116.92,11.76z M114.23,34.07l-2.28-0.22l-0.29-17.29h2.58V34.07z M115.08,11.76
		c0-0.37-0.14-0.7-0.41-0.97c-0.27-0.27-0.59-0.41-0.96-0.41s-0.69,0.14-0.96,0.41c-0.27,0.27-0.41,0.6-0.41,0.97
		c0,0.37,0.13,0.7,0.41,0.97c0.27,0.27,0.59,0.41,0.96,0.41s0.69-0.14,0.96-0.41C114.94,12.46,115.08,12.14,115.08,11.76z
		 M115.63,16.55l-0.07,17.52L114.97,34l-0.07-17.44H115.63z"/>
	<path d="M133.16,16.56l-7.07,17.52l-2.14,0.08l-6.18-16.77l3.09-1.27l4.01,11.72l4.86-11.72l0.66,0.3l-5.19,12.46
		c0.1,0.22,0.25,0.64,0.44,1.23l5.6-14L133.16,16.56z"/>
	<path d="M148.58,32.97c-0.76,0.2-1.53,0.42-2.32,0.65c-1.13,0.23-2.58,0.34-4.34,0.34c-2.31,0-4.2-0.7-5.67-2.1
		c-1.69-1.6-2.54-3.95-2.54-7.05c0-2.5,1.03-4.49,3.09-5.96c1.74-1.27,3.73-1.91,5.96-1.91c3.36,0,5.3,1.72,5.82,5.17l-12.37,0.3
		c-0.15,0.4-0.23,0.72-0.26,0.97l12.52-0.37l-0.07,0.9l-12.59,0.38v0.53c0,2.18,0.64,4.01,1.91,5.49c1.2,1.4,2.67,2.1,4.42,2.1
		c1.82,0,3.85-0.26,6.11-0.79L148.58,32.97z M146.7,20.75c-0.76-1.5-2.04-2.25-3.83-2.25c-2.85,0-4.9,0.96-6.15,2.88L146.7,20.75z"
		/>
	<path d="M31.16,61.61c-1.15,0.33-2.31,0.64-3.46,0.94c-1.72,0.35-3.89,0.52-6.52,0.52c-3.49,0-6.32-1.05-8.5-3.14
		c-2.55-2.42-3.83-5.94-3.83-10.56c0-3.74,1.55-6.72,4.64-8.95c2.63-1.9,5.61-2.84,8.95-2.84c2.16,0,3.82,0.19,4.97,0.56
		c0.98,0.32,1.96,0.92,2.94,1.8l-1.62,1.68c-0.96-0.6-1.79-1.01-2.5-1.24c-0.96-0.3-2.16-0.45-3.61-0.45c-1.3,0-2.6,0.19-3.9,0.56
		l0.4,19.88c0.79,0.22,1.58,0.34,2.39,0.34c2.18,0,4.1-0.14,5.74-0.41c0.22-0.03,1.36-0.26,3.42-0.71L31.16,61.61z M14.63,57.23
		l-0.26-14.19c-1.57,1.6-2.36,3.71-2.36,6.33C12.02,52.46,12.89,55.08,14.63,57.23z M16.51,59.06l-0.37-17.41
		c-0.39,0.22-0.74,0.46-1.03,0.71l0.26,15.72C15.86,58.54,16.24,58.87,16.51,59.06z M18.39,60.11l-0.4-19.35
		c-0.25,0.1-0.61,0.26-1.1,0.49l0.37,18.3C17.64,59.78,18.02,59.96,18.39,60.11z M24.42,48.85c0.29,0.37,0.44,0.8,0.44,1.27
		c0,0.65-0.26,1.19-0.77,1.61c-0.37,0.3-0.8,0.45-1.29,0.45c-0.66,0-1.2-0.26-1.62-0.79c-0.29-0.37-0.44-0.8-0.44-1.27
		c0-0.67,0.27-1.22,0.81-1.65c0.37-0.3,0.79-0.45,1.25-0.45C23.47,48.02,24.01,48.3,24.42,48.85z"/>
	<path d="M49.02,57.12c-0.12,1.22-0.68,2.4-1.66,3.52c-0.83,0.92-1.74,1.61-2.72,2.06c-0.79,0.35-1.78,0.52-2.98,0.52
		c-1.18,0-2.38-0.16-3.61-0.49c-1.03-0.27-2.11-1.07-3.24-2.4c-1.28-1.55-1.91-3.11-1.91-4.68c0.02-1.82,0.29-3.19,0.81-4.12
		c0.64-1.12,1.46-2.2,2.47-3.22c1.52-1.3,3.28-2.03,5.26-2.21c1.06,0.05,2.12,0.41,3.2,1.09c0.96,0.57,1.73,1.26,2.32,2.06
		c1.42,1.92,2.14,4.14,2.14,6.66C49.09,56.32,49.06,56.72,49.02,57.12z M44.67,59.78c-1.62-1.1-4.61-3.11-8.98-6.03
		c-0.15,0.9-0.12,1.73,0.07,2.51c0.37,1.35,1.09,2.45,2.15,3.31c1.07,0.86,2.25,1.29,3.55,1.29C42.62,60.86,43.69,60.5,44.67,59.78z
		 M45.74,58.69l-9.57-6.4c-0.07,0.15-0.17,0.4-0.29,0.75c3.12,2.07,6.23,4.15,9.35,6.25c0.07-0.08,0.17-0.18,0.28-0.32
		C45.61,58.83,45.69,58.74,45.74,58.69z M46.44,57.23l-9.46-6.33c-0.2,0.25-0.37,0.5-0.52,0.75c3.22,2.12,6.42,4.27,9.61,6.44
		C46.17,57.92,46.29,57.63,46.44,57.23z M46.66,56.52c0.1-0.47,0.15-0.95,0.15-1.42c0-0.85-0.16-1.67-0.48-2.47
		c-0.47-1.15-1.17-2.07-2.1-2.77s-1.96-1.05-3.09-1.05c-1.5,0-2.72,0.52-3.68,1.57L46.66,56.52z"/>
	<path d="M64.29,45.44l-0.44,17.85h-1.88l-0.11-3.26c-1.25,2.37-3.02,3.56-5.3,3.56c-2.26,0-3.39-1.44-3.39-4.33
		c0-1.15,0.29-2.63,0.88-4.44c0.59-1.82,0.88-3.32,0.88-4.52c0-1.87-0.53-2.8-1.58-2.8c-0.49,0-0.74,0.19-0.74,0.58
		c0,0.46,0.12,0.69,0.37,0.69c0.22,0,0.4-0.06,0.55-0.19l0.55,0.64l-0.99,1.01c-0.32,0.25-0.71,0.37-1.18,0.37
		c-0.34,0-0.64-0.19-0.9-0.58c-0.26-0.38-0.39-0.79-0.39-1.21c0-0.69,0.21-1.34,0.63-1.93c0.69-0.97,1.82-1.45,3.39-1.45
		c0.83,0,1.5,0.37,1.99,1.12c0.42,0.67,0.63,1.51,0.63,2.5c0,1.2-0.26,2.69-0.77,4.48c-0.52,1.79-0.77,3.26-0.77,4.41
		c0,1.14,0.11,1.94,0.33,2.39c0.29,0.6,0.87,0.9,1.73,0.9c0.64,0,1.34-0.43,2.1-1.29c0.76-0.86,1.37-1.9,1.84-3.13
		c-0.05-2-0.18-5.68-0.4-11.04L64.29,45.44z M52.4,58.09c0,0.57-0.29,0.86-0.88,0.86c-0.59,0-0.88-0.29-0.88-0.86
		c0-0.57,0.29-0.86,0.88-0.86C52.11,57.23,52.4,57.52,52.4,58.09z M52.62,60.79c0.29,0.42,0.22,0.8-0.23,1.12
		c-0.44,0.3-0.83,0.22-1.17-0.22c-0.29-0.42-0.22-0.8,0.23-1.12C51.9,60.26,52.29,60.34,52.62,60.79z M52.84,54.27
		c0.27,0.37,0.22,0.7-0.15,0.97c-0.37,0.28-0.69,0.22-0.96-0.15c-0.27-0.37-0.22-0.7,0.15-0.97C52.26,53.85,52.57,53.9,52.84,54.27z
		"/>
	<path d="M79.17,52.66c0.02,0.42-0.02,2.36-0.15,5.8c-0.1,3.27-0.17,5.19-0.22,5.76l-2.83-0.04c0.34-6.22,0.49-9.58,0.44-10.08
		c-0.29-3.39-1.17-5.08-2.61-5.08c-1.5,0-2.54,1.15-3.13,3.46l-0.04,2.83l2.17-0.15l0.07,0.75l-2.25,0.15l-0.04,1.27l2.1-0.15
		l0.07,0.75l-2.21,0.15c0,1.11-0.02,2.84-0.07,5.2l-2.58,0.08l-0.18-5.09l-1.58,0.11l-0.07-0.75l1.62-0.11l-0.04-1.24
		c-0.25,0-0.71,0.03-1.4,0.08l-0.07-0.75c0.98-0.08,1.46-0.1,1.44-0.08l-0.29-9.21l3.46-0.08l-0.04,2.77
		c0.93-1.52,2.28-2.28,4.05-2.28c1.4,0,2.5,0.72,3.31,2.17C78.71,50.02,79.07,51.27,79.17,52.66z"/>
	<path d="M99.16,57.72c0,3.52-1.87,5.34-5.6,5.46H81.12l0.11-2.06c0.15,0,1.18,0.04,3.09,0.11l3.35-6.18
		c-3.63-0.45-5.45-1.73-5.45-3.86c0-2.72,2.27-4.24,6.81-4.57c2.53-0.17,4.5-0.25,5.93-0.22l-0.11,2.17
		C92,48.33,89.72,48.41,88,48.81c-1.5,0.35-2.36,0.57-2.58,0.67c-0.79,0.37-1.18,1.02-1.18,1.95c0,0.82,1.26,1.34,3.79,1.54
		c0.74,0.05,2.61,0.08,5.63,0.08c1.52,0,2.77,0.35,3.75,1.05C98.58,54.91,99.16,56.12,99.16,57.72z M89.25,55.25
		c-0.39,0-0.69-0.01-0.88-0.04l-3.31,6.03h0.92L89.25,55.25z M90.84,55.21h-0.85l-3.28,5.91h0.88L90.84,55.21z M96.36,58.02
		c0-1.01-0.23-1.72-0.7-2.13c-0.47-0.41-1.24-0.63-2.32-0.68h-1.77l-3.24,5.91c2.16-0.05,3.72-0.07,4.68-0.07
		C95.24,61.05,96.36,60.04,96.36,58.02z"/>
	<path d="M116.09,62.38c-0.76,0.2-1.53,0.42-2.32,0.65c-1.13,0.23-2.58,0.34-4.34,0.34c-2.31,0-4.2-0.7-5.67-2.1
		c-1.69-1.6-2.54-3.95-2.54-7.05c0-2.5,1.03-4.49,3.09-5.96c1.74-1.27,3.73-1.91,5.96-1.91c3.36,0,5.3,1.72,5.82,5.17l-12.37,0.3
		c-0.15,0.4-0.23,0.72-0.26,0.97l12.52-0.37l-0.07,0.9l-12.59,0.38v0.53c0,2.18,0.64,4.01,1.91,5.49c1.2,1.4,2.68,2.1,4.42,2.1
		c1.82,0,3.85-0.26,6.11-0.79L116.09,62.38z M114.22,50.16c-0.76-1.5-2.04-2.25-3.83-2.25c-2.85,0-4.9,0.96-6.15,2.88L114.22,50.16z
		"/>
	<path d="M127.25,62.06l-0.92,1.05c-0.49,0.55-0.95,0.82-1.36,0.82c-0.81,0-1.66-0.72-2.54-2.17c-0.61-1.02-1.1-2.1-1.47-3.22
		c-0.37,0.65-0.99,1.68-1.88,3.11c-0.22,0.35-0.55,0.84-0.99,1.46l-0.81-0.64c1.03-1.57,2.06-3.62,3.09-6.14
		c-0.54-2.4-0.81-4.83-0.81-7.3c0-2.59,0.28-5.08,0.85-7.45c0.76-3.24,1.85-4.87,3.28-4.87c0.88,0,1.37,0.75,1.47,2.25
		c0.05,0.65,0.07,1.31,0.07,1.98c0,5.44-0.94,10.39-2.83,14.86c0.81,3.14,2.01,5.09,3.61,5.84c0.25,0.15,0.49,0,0.74-0.45
		L127.25,62.06z M123.2,40.35c0-0.1-0.04-0.39-0.11-0.86c-1.01,2.05-1.51,5.18-1.51,9.4c0,1.02,0.06,2.2,0.18,3.52
		c1.01-3.47,1.51-6.84,1.51-10.11C123.27,41.62,123.25,40.97,123.2,40.35z"/>
	<path d="M134.61,41.17c0,0.9-0.31,1.67-0.94,2.3c-0.63,0.64-1.38,0.95-2.26,0.95c-0.88,0-1.64-0.32-2.26-0.95
		c-0.63-0.64-0.94-1.4-0.94-2.3s0.31-1.67,0.94-2.3c0.63-0.64,1.38-0.95,2.26-0.95c0.88,0,1.64,0.32,2.26,0.95
		C134.3,39.51,134.61,40.27,134.61,41.17z M131.92,63.48l-2.28-0.22l-0.29-17.29h2.58V63.48z M132.77,41.17
		c0-0.37-0.14-0.7-0.41-0.97c-0.27-0.27-0.59-0.41-0.96-0.41c-0.37,0-0.69,0.14-0.96,0.41c-0.27,0.27-0.4,0.6-0.4,0.97
		c0,0.37,0.13,0.7,0.4,0.97c0.27,0.27,0.59,0.41,0.96,0.41c0.37,0,0.69-0.14,0.96-0.41C132.63,41.87,132.77,41.55,132.77,41.17z
		 M133.32,45.96l-0.07,17.52l-0.59-0.08l-0.07-17.44H133.32z"/>
	<path d="M149,52.66c0.03,0.42-0.02,2.36-0.15,5.8c-0.1,3.27-0.17,5.19-0.22,5.76l-2.84-0.04c0.34-6.22,0.49-9.58,0.44-10.08
		c-0.29-3.39-1.17-5.08-2.61-5.08c-1.5,0-2.54,1.15-3.13,3.46l-0.04,2.83l2.17-0.15l0.07,0.75l-2.25,0.15l-0.04,1.27l2.1-0.15
		l0.07,0.75l-2.21,0.15c0,1.11-0.02,2.84-0.07,5.2l-2.58,0.08l-0.18-5.09l-1.58,0.11l-0.07-0.75l1.62-0.11l-0.04-1.24
		c-0.25,0-0.71,0.03-1.4,0.08l-0.07-0.75c0.98-0.08,1.46-0.1,1.44-0.08l-0.29-9.21l3.46-0.08l-0.04,2.77
		c0.93-1.52,2.28-2.28,4.05-2.28c1.4,0,2.5,0.72,3.31,2.17C148.55,50.02,148.91,51.27,149,52.66z"/>
	<path d="M165.24,67.9c0,2.02-0.98,3.56-2.94,4.6c-1.42,0.75-2.93,1.12-4.53,1.12c-1.82,0-3.39-0.45-4.71-1.35
		c-1.4-0.97-2.1-2.22-2.1-3.74c0-1.92,1.62-3.28,4.86-4.08c-0.66-0.5-0.99-1.04-0.99-1.61c0-0.85,0.45-1.63,1.36-2.36
		c-1.42-0.17-2.54-0.85-3.35-2.02c-0.76-1.1-1.14-2.48-1.14-4.16c0-2.6,0.71-4.55,2.13-5.88l1.4-1.31c0.88-0.82,1.96-1.24,3.24-1.24
		c0.76,0,1.42,0.16,1.99,0.49c0.69-1.52,1.74-2.26,3.17-2.21c0.83,0.02,1.25,0.46,1.25,1.31c0,0.35-0.13,0.62-0.4,0.82l-0.92,0.82
		l-0.55-0.56c0.07-0.02,0.11-0.1,0.11-0.22c0-0.35-0.21-0.52-0.63-0.52c-0.54,0-0.88,0.49-1.03,1.46c0.25,0.3,0.6,0.77,1.07,1.42
		c0.56,1.02,0.85,2.23,0.85,3.63c0,2.5-0.7,4.41-2.1,5.73l-1.4,1.31c-0.61,0.58-1.26,0.92-1.95,1.05c-0.47,0.47-0.7,0.89-0.7,1.24
		c0,0.8,0.69,1.31,2.06,1.53C163.25,63.83,165.24,65.4,165.24,67.9z M162.85,69.21c0-1.37-0.85-2.41-2.54-3.11
		c-0.74-0.17-1.35-0.26-1.84-0.26c-1.15,0-2.22,0.15-3.2,0.45c-1.28,0.35-1.92,0.86-1.92,1.54c0,1.2,0.54,2.11,1.62,2.73
		c0.98,0.57,2.25,0.86,3.79,0.86c0.69,0,1.51-0.22,2.47-0.67C162.31,70.24,162.85,69.73,162.85,69.21z M160.27,50.42
		c-0.32-0.77-0.77-1.38-1.36-1.83h-0.04c-0.44-0.27-1.04-0.41-1.8-0.41c-0.66,0-1.24,0.14-1.73,0.41c-0.79,1.12-1.18,2.6-1.18,4.42
		c0,0.6,0.06,1.21,0.18,1.83L160.27,50.42z M160.71,51.73c-0.02-0.15-0.07-0.35-0.15-0.6l-5.96,4.49c0.02,0.05,0.06,0.13,0.11,0.24
		c0.05,0.11,0.08,0.19,0.11,0.24L160.71,51.73z M160.9,53.64c0-0.22-0.02-0.59-0.07-1.09l-5.6,4.19c0.74,1,1.78,1.5,3.13,1.5
		c0.49,0,0.96-0.1,1.4-0.3C160.52,56.77,160.9,55.33,160.9,53.64z M162.11,61.57c0.25,0.45,0.16,0.79-0.25,1.01
		c-0.43,0.25-0.75,0.16-0.96-0.26c-0.25-0.45-0.16-0.79,0.25-1.01C161.57,61.06,161.9,61.15,162.11,61.57z M164.98,62.7
		c0.37,0.52,0.31,0.96-0.18,1.31c-0.52,0.38-0.95,0.31-1.29-0.19c-0.37-0.52-0.31-0.96,0.18-1.31
		C164.21,62.13,164.64,62.2,164.98,62.7z"/>
</g>
</svg>
